<svg id="color" enable-background="new 0 0 24 24" height="512" viewBox="0 0 24 24" width="512" xmlns="http://www.w3.org/2000/svg"><path d="m23 24c-2.229 0-3.801-.453-5.465-.932-1.824-.525-3.711-1.068-6.785-1.068-.553 0-1-.448-1-1s.447-1 1-1c3.356 0 5.472.609 7.339 1.146 1.59.459 2.964.854 4.911.854.553 0 1 .448 1 1s-.447 1-1 1z" fill="#2196f3"/><path d="m11 22c-6.065 0-11-4.935-11-11s4.935-11 11-11 11 4.935 11 11-4.935 11-11 11z" fill="#2196f3"/><g fill="#64b5f6"><path d="m6.946 9.52-5.19-2.99c-.359-.206-.483-.663-.277-1.022.957-1.678 2.35-3.071 4.029-4.03.358-.206.815-.081 1.021.277l2.99 5.19c.207.358.084.816-.273 1.023-.529.307-.971.748-1.276 1.278-.208.36-.669.479-1.024.274z"/><path d="m14.028 9.241c-.299-.524-.741-.963-1.279-1.27-.359-.204-.486-.666-.278-1.027l3-5.19c.207-.356.663-.48 1.021-.276 1.68.958 3.072 2.352 4.029 4.03.205.359.081.815-.277 1.021l-5.19 2.99c-.359.208-.82.085-1.026-.278z"/><path d="m5.508 20.521c-1.68-.959-3.072-2.352-4.029-4.03-.204-.358-.081-.814.276-1.021l5.19-3c.36-.209.821-.084 1.026.278.304.533.746.976 1.279 1.28.359.204.486.666.278 1.027l-3 5.19c-.205.359-.663.481-1.02.276z"/><path d="m15.471 20.246-3-5.19c-.208-.361-.081-.823.278-1.027.533-.304.976-.747 1.279-1.28.205-.362.666-.487 1.026-.278l5.19 3c.357.207.48.663.276 1.021-.957 1.678-2.35 3.071-4.029 4.03-.356.204-.814.082-1.02-.276z"/></g><path d="m11 16c-2.757 0-5-2.243-5-5s2.243-5 5-5 5 2.243 5 5-2.243 5-5 5z" fill="#fff"/><path d="m10.642 21.994c.036.004.072.006.108.006.084 0 .168 0 .25.001v-.001c-.12 0-.239-.002-.358-.006z" fill="#1d83d4"/><path d="m9.181 15.658-2.652 4.588c-.139.241-.391.375-.65.375-.126 0-.254-.032-.371-.099-.327-.187-.644-.39-.948-.609 1.721 1.247 3.816 2.009 6.082 2.081.119.004.238.006.358.006v-6c-.641 0-1.255-.121-1.819-.342zm-7.076-11.123c-1.323 1.816-2.105 4.051-2.105 6.465 0 2.416.783 4.653 2.109 6.47-.227-.314-.437-.64-.63-.978-.204-.358-.081-.814.276-1.021l4.588-2.652c-.222-.564-.343-1.178-.343-1.819 0-.644.122-1.26.345-1.826l-4.589-2.644c-.359-.206-.483-.663-.277-1.022.191-.336.401-.661.626-.973zm8.895-4.535c-2.403 0-4.628.774-6.44 2.087.304-.218.62-.422.947-.608.117-.067.245-.099.371-.099.259 0 .512.135.65.376l2.645 4.59c.567-.224 1.183-.346 1.827-.346z" fill="#1d83d4"/><path d="m5.879 1.379c-.126 0-.254.032-.371.099-.327.187-.643.39-.948.609-.945.679-1.774 1.506-2.455 2.448-.225.312-.435.637-.626.973-.206.359-.082.816.277 1.022l4.589 2.644c.508-1.29 1.538-2.32 2.829-2.828l-2.645-4.59c-.138-.241-.391-.377-.65-.377z" fill="#579ed6"/><path d="m6.343 12.819-4.588 2.652c-.357.207-.48.663-.276 1.021.193.338.403.664.63.978.68.94 1.508 1.766 2.451 2.443.304.219.621.422.948.609.117.067.245.099.371.099.259 0 .512-.134.65-.375l2.652-4.588c-1.296-.508-2.33-1.543-2.838-2.839z" fill="#579ed6"/><path d="m11 6c-.644 0-1.26.122-1.826.345-1.29.508-2.32 1.538-2.829 2.828-.223.567-.345 1.183-.345 1.827 0 .641.121 1.255.343 1.819.508 1.296 1.542 2.331 2.839 2.839.563.221 1.177.342 1.818.342z" fill="#dedede"/></svg>